<?xml version="1.0" encoding="UTF-8"?>
<svg id="Calque_2" data-name="Calque 2" xmlns="http://www.w3.org/2000/svg" viewBox="0 0 460.51 460.49">
  <defs>
    <style>
      .cls-1 {
        fill: #eb94c2;
        stroke-width: 0px;
      }
    </style>
  </defs>
  <g id="Calque_1-2" data-name="Calque 1">
    <path class="cls-1" d="M387.41,443.39c-13.41,4.93-27.77,7.66-42,9.64-76.79,9.97-154.28,9.96-231.07-.12-28.18-3.85-58.29-11.58-78-33.13-18.28-19.64-25.1-47.5-28.7-73.65C-2.17,267.94-6.5,140.82,19.61,67.08,35.63,26.57,76.17,11.94,116.5,7.34c81.9-10.14,165.1-10.4,246.61,3.14,22.52,4.41,45.32,13.1,60.95,30.1,48.52,47.02,38.47,250.73,26.91,317.84-6.2,38.66-24.69,71.77-63.48,84.94l-.08.03Z"/>
  </g>
</svg>