<?xml version="1.0" encoding="UTF-8"?>
<svg id="Calque_2" data-name="Calque 2" xmlns="http://www.w3.org/2000/svg" viewBox="0 0 433.47 460.49">
  <defs>
    <style>
      .cls-1 {
        fill: #eb6366;
        stroke-width: 0px;
      }
    </style>
  </defs>
  <g id="Calque_1-2" data-name="Calque 1">
    <path class="cls-1" d="M391.65,86.98c-42.08-32.57-88.7-59.59-138.73-79.92-23.19-9.42-49.18-9.42-72.37,0-50.03,20.33-96.65,47.35-138.73,79.92-19.83,15.35-32.86,37.92-36.3,62.75C1.82,176.54,0,203.44,0,230.24c0,26.8,1.82,53.7,5.52,80.51,3.44,24.84,16.47,47.41,36.3,62.75,42.08,32.57,88.7,59.59,138.73,79.92,23.19,9.42,49.18,9.42,72.37,0,50.03-20.33,96.65-47.35,138.73-79.92,19.83-15.35,32.86-37.92,36.3-62.75,3.71-26.81,5.53-53.71,5.52-80.51,0-26.8-1.82-53.7-5.52-80.51-3.44-24.84-16.47-47.41-36.3-62.75"/>
  </g>
</svg>